<svg width="24" height="24" viewBox="0 0 24 24" fill="none" xmlns="http://www.w3.org/2000/svg">
<path d="M14 1.25C14.4142 1.25 14.75 1.58579 14.75 2C14.75 2.41421 14.4142 2.75 14 2.75H12.75V3.28125C17.7842 3.66432 21.75 7.86765 21.75 13C21.75 18.3848 17.3848 22.75 12 22.75C6.61522 22.75 2.25 18.3848 2.25 13C2.25 7.86765 6.21577 3.66432 11.25 3.28125V2.75H10C9.58579 2.75 9.25 2.41421 9.25 2C9.25 1.58579 9.58579 1.25 10 1.25H14ZM12 4.75C7.44365 4.75 3.75 8.44365 3.75 13C3.75 17.5563 7.44365 21.25 12 21.25C16.5563 21.25 20.25 17.5563 20.25 13C20.25 8.44365 16.5563 4.75 12 4.75ZM13.2061 9.27148C13.5909 9.24143 13.9696 9.23984 14.3037 9.28809C14.6115 9.33256 15.0099 9.4364 15.3008 9.72461C15.5751 9.99662 15.6637 10.3814 15.7031 10.6367C15.749 10.9336 15.758 11.2774 15.7441 11.6318C15.7163 12.3449 15.5924 13.2006 15.4092 14.0234C15.2265 14.8437 14.9759 15.6717 14.6777 16.3174C14.5299 16.6374 14.355 16.9465 14.1484 17.1914C13.9569 17.4185 13.6401 17.7055 13.1934 17.7441C12.6528 17.7909 12.233 17.5433 11.9482 17.2432C11.6797 16.96 11.4968 16.5999 11.3672 16.2832C11.2339 15.9574 11.1329 15.6167 11.0557 15.335C11.026 15.2268 11.0013 15.1327 10.9795 15.0508C10.9389 14.8979 10.9096 14.7864 10.8809 14.7012C10.7917 14.4365 10.7279 14.3523 10.6875 14.3125C10.6462 14.2718 10.5604 14.2092 10.2939 14.1211L10.2539 14.1084C9.50302 13.86 8.88711 13.6556 8.44238 13.46C8.21378 13.3594 7.99222 13.2449 7.80566 13.1045C7.61674 12.9623 7.42303 12.7639 7.31738 12.4844C7.12047 11.9631 7.38438 11.5236 7.58887 11.29C7.80261 11.0459 8.09969 10.8408 8.39844 10.6709C9.0092 10.3235 9.83966 10.0058 10.6816 9.76172C11.5274 9.51653 12.4327 9.33188 13.2061 9.27148ZM14.0898 10.7725C13.9058 10.7459 13.6473 10.7413 13.3232 10.7666C12.6783 10.817 11.8765 10.9769 11.0996 11.2021C10.3189 11.4285 9.61017 11.707 9.13965 11.9746C9.08497 12.0057 9.03575 12.0357 8.99219 12.0635C9.0091 12.0712 9.02736 12.0788 9.0459 12.0869C9.41707 12.2502 9.96487 12.4324 10.7656 12.6973C11.1171 12.8136 11.4578 12.9659 11.7402 13.2441C12.0235 13.5233 12.1811 13.8635 12.3018 14.2217C12.3466 14.3549 12.3972 14.5448 12.4463 14.7295C12.4653 14.8008 12.4848 14.8713 12.5029 14.9375C12.576 15.204 12.6567 15.4748 12.7549 15.7148C12.8516 15.9513 12.9459 16.1088 13.0244 16.1973C13.1059 16.0933 13.2057 15.9261 13.3154 15.6885C13.5529 15.1741 13.7759 14.4582 13.9453 13.6973C14.1141 12.9394 14.2216 12.1755 14.2451 11.5732C14.257 11.2699 14.2463 11.031 14.2207 10.8652C14.2164 10.8377 14.2121 10.8141 14.208 10.7949C14.1795 10.7877 14.1407 10.7798 14.0898 10.7725Z" fill="black"/>
</svg>
