<svg width="14" height="8" viewBox="0 0 14 8" fill="none" xmlns="http://www.w3.org/2000/svg">
<path d="M1.60372 0.555285C1.7256 0.716659 2.08951 1.1984 2.30624 1.47611C2.74031 2.03233 3.33342 2.77142 3.97323 3.50831C4.61627 4.24893 5.29178 4.97022 5.89189 5.50046C6.19281 5.76634 6.45714 5.96837 6.67527 6.09987C6.88042 6.22355 7.00161 6.24927 7.00161 6.24927C7.00161 6.24927 7.11923 6.22355 7.32437 6.09988C7.5425 5.96838 7.80684 5.76635 8.10775 5.50047C8.70786 4.97022 9.38337 4.24892 10.0264 3.5083C10.6662 2.7714 11.2593 2.0323 11.6934 1.47608C11.9101 1.19837 12.2735 0.717304 12.3954 0.555928C12.6411 0.222405 13.1111 0.150469 13.4446 0.396102C13.7781 0.641734 13.8494 1.11123 13.6037 1.44476L13.6018 1.4473C13.474 1.61655 13.0971 2.11556 12.8759 2.39892C12.4321 2.9677 11.8216 3.72861 11.1591 4.49171C10.4997 5.25109 9.77408 6.02979 9.10096 6.62454C8.76526 6.92116 8.42497 7.18788 8.0988 7.3845C7.79322 7.56872 7.40633 7.75 6.99982 7.75C6.59331 7.75 6.20642 7.56871 5.90084 7.3845C5.57468 7.18787 5.23439 6.92116 4.89869 6.62454C4.22557 6.02979 3.4999 5.2511 2.84058 4.49173C2.17803 3.72863 1.5676 2.96774 1.12372 2.39896C0.902432 2.11541 0.525506 1.61637 0.397929 1.44747L0.396279 1.44528C0.150645 1.11176 0.22154 0.641787 0.555062 0.396152C0.888572 0.150526 1.35808 0.221792 1.60372 0.555285Z" fill="black"/>
</svg>
