<svg width="24" height="24" viewBox="0 0 24 24" fill="none" xmlns="http://www.w3.org/2000/svg">
<path fill-rule="evenodd" clip-rule="evenodd" d="M6.18213 2.25C6.19946 2.25 6.21686 2.25 6.23431 2.25L17.8178 2.25C18.5884 2.24996 19.2426 2.24993 19.7587 2.3203C20.3049 2.39478 20.8273 2.56291 21.2272 3.00309C21.6306 3.44713 21.741 3.98226 21.7494 4.52927C21.7573 5.04013 21.6757 5.67472 21.5805 6.41461L21.5735 6.46849C21.5399 6.73032 21.4893 6.98356 21.384 7.2371C21.2771 7.49453 21.1298 7.71377 20.9464 7.93165C19.9667 9.09553 18.1454 11.1989 15.5814 13.1144C15.54 13.1454 15.4876 13.2188 15.4776 13.329C15.2285 16.0819 15.0094 17.5385 14.8513 18.3823C14.6803 19.2948 13.9843 19.9264 13.3841 20.3612C13.0701 20.5888 12.7367 20.7937 12.4398 20.9744C12.416 20.9889 12.3925 21.0032 12.3693 21.0173C12.0919 21.186 11.8561 21.3294 11.659 21.4687C11.1185 21.8509 10.4949 21.8241 10.0183 21.5464C9.56847 21.2844 9.25196 20.8065 9.18796 20.266C9.0475 19.0796 8.79286 16.7569 8.51176 13.3226C8.50274 13.2124 8.48553 13.1805 8.4841 13.1778C8.48311 13.1759 8.48058 13.1713 8.47219 13.1621C8.4628 13.1517 8.44403 13.1334 8.40835 13.1068C5.84952 11.1937 4.03182 9.094 3.05351 7.93161C2.8708 7.71453 2.71921 7.50051 2.61112 7.24022C2.50531 6.98541 2.46019 6.73088 2.42644 6.46849C2.42412 6.45047 2.42181 6.4325 2.41951 6.4146C2.32429 5.67471 2.24262 5.04013 2.25053 4.52927C2.259 3.98226 2.36942 3.44713 2.7728 3.00309C3.17269 2.56291 3.69502 2.39478 4.2413 2.3203C4.75741 2.24993 5.41157 2.24996 6.18213 2.25ZM4.44394 3.80655C4.05984 3.85892 3.94414 3.94449 3.88307 4.01171C3.82551 4.07507 3.75601 4.18665 3.75035 4.55249C3.74432 4.94212 3.81012 5.46811 3.91418 6.27712C3.9431 6.50192 3.96843 6.59754 3.99643 6.66496C4.02215 6.7269 4.06773 6.80721 4.20114 6.96572C5.15942 8.10431 6.88846 10.0976 9.30654 11.9054C9.50081 12.0507 9.67905 12.2305 9.808 12.4726C9.93505 12.7112 9.98704 12.9594 10.0068 13.2002C10.2863 16.6158 10.5391 18.9204 10.6776 20.0896C10.6818 20.1253 10.6948 20.1604 10.7147 20.1911C10.7352 20.2224 10.7579 20.2413 10.7733 20.2503C10.7753 20.2515 10.777 20.2524 10.7785 20.2531C10.7821 20.2512 10.7869 20.2483 10.793 20.244C11.0351 20.0728 11.3161 19.902 11.5813 19.7409C11.6077 19.7248 11.634 19.7089 11.66 19.693C11.9588 19.5112 12.2446 19.3345 12.504 19.1466C13.0508 18.7503 13.319 18.4151 13.3769 18.1061C13.5234 17.3242 13.7372 15.9181 13.9837 13.1938C14.0289 12.6947 14.274 12.2188 14.6837 11.9127C17.1067 10.1025 18.8392 8.10571 19.7988 6.96569C19.9152 6.82744 19.9669 6.7383 19.9988 6.6616C20.0323 6.58102 20.0604 6.47439 20.0858 6.27712C20.1899 5.46811 20.2557 4.94212 20.2496 4.55249C20.244 4.18665 20.1745 4.07507 20.1169 4.01171C20.0558 3.94449 19.9401 3.85892 19.556 3.80655C19.1534 3.75165 18.6027 3.75 17.7657 3.75H6.23431C5.39726 3.75 4.8466 3.75165 4.44394 3.80655ZM10.7707 20.2566C10.7707 20.2566 10.7712 20.2564 10.7721 20.2562L10.7707 20.2566Z" fill="black"/>
</svg>
