<svg width="24" height="24" viewBox="0 0 24 24" fill="none" xmlns="http://www.w3.org/2000/svg">
<path d="M12 1.25C17.9371 1.25 22.75 6.06294 22.75 12C22.75 17.9371 17.9371 22.75 12 22.75C6.06294 22.75 1.25 17.9371 1.25 12C1.25 6.06294 6.06294 1.25 12 1.25ZM12 2.75C6.89137 2.75 2.75 6.89137 2.75 12C2.75 17.1086 6.89137 21.25 12 21.25C17.1086 21.25 21.25 17.1086 21.25 12C21.25 6.89137 17.1086 2.75 12 2.75ZM11.5 6.25C11.9142 6.25 12.25 6.58579 12.25 7V7.62891H17C17.4141 7.62891 17.7498 7.96488 17.75 8.37891C17.75 8.79312 17.4142 9.12891 17 9.12891H15.0537C14.5145 10.7297 13.6125 12.2286 12.5986 13.5645L14.0762 15.1006C14.3633 15.3991 14.3541 15.874 14.0557 16.1611C13.7571 16.4483 13.2823 16.4391 12.9951 16.1406L11.6475 14.7393C10.7276 15.8079 9.76355 16.758 8.90039 17.5518C8.59552 17.8321 8.1212 17.8126 7.84082 17.5078C7.56057 17.203 7.58024 16.7287 7.88477 16.4482C8.76141 15.6421 9.72982 14.6832 10.6357 13.6143C10.4072 13.3273 10.1707 13.0162 9.9541 12.7158C9.61732 12.2488 9.28875 11.7553 9.12695 11.4082C8.95198 11.0328 9.11484 10.5861 9.49023 10.4111C9.86567 10.2362 10.3123 10.399 10.4873 10.7744C10.5828 10.9791 10.8331 11.3704 11.1709 11.8389C11.3064 12.0268 11.4494 12.2193 11.5928 12.4053C12.355 11.368 13.0108 10.2651 13.457 9.12891H7C6.58579 9.12891 6.25 8.79312 6.25 8.37891C6.25022 7.96488 6.58592 7.62891 7 7.62891H10.75V7C10.75 6.58579 11.0858 6.25 11.5 6.25Z" fill="black"/>
</svg>
