<svg width="24" height="24" viewBox="0 0 24 24" fill="none" xmlns="http://www.w3.org/2000/svg">
<path d="M1.96289 15.251C2.37654 15.2305 2.72845 15.5492 2.74902 15.9629C2.85752 18.1442 3.18193 19.2588 3.94727 20.0215C4.82953 20.9006 6.16667 21.1855 9.00098 21.25C9.41474 21.2596 9.74256 21.6028 9.7334 22.0166C9.72397 22.4306 9.38074 22.7592 8.9668 22.75C6.18807 22.6867 4.24555 22.4371 2.8877 21.084C1.69263 19.8929 1.36157 18.2608 1.25098 16.0371C1.23048 15.6235 1.54924 15.2715 1.96289 15.251ZM22.0371 15.251C22.4508 15.2715 22.7695 15.6234 22.749 16.0371C22.6385 18.2608 22.3074 19.8929 21.1123 21.084C19.7544 22.4371 17.8119 22.6867 15.0332 22.75C14.6193 22.7592 14.276 22.4306 14.2666 22.0166C14.2574 21.6028 14.5853 21.2596 14.999 21.25C17.8333 21.1855 19.1704 20.9005 20.0527 20.0215C20.8181 19.2588 21.1425 18.1442 21.251 15.9629C21.2715 15.5492 21.6235 15.2305 22.0371 15.251ZM11.5 6.24998C14.3995 6.24998 16.75 8.60046 16.75 11.5C16.75 12.6792 16.3615 13.7681 15.7051 14.6445L17.5303 16.4697C17.8232 16.7626 17.8232 17.2374 17.5303 17.5303C17.2374 17.8232 16.7626 17.8232 16.4697 17.5303L14.6445 15.7051C13.7681 16.3615 12.6793 16.75 11.5 16.75C8.60048 16.75 6.25 14.3995 6.25 11.5C6.25 8.60046 8.60048 6.24999 11.5 6.24998ZM11.5 7.74998C9.42891 7.74999 7.75 9.42889 7.75 11.5C7.75 13.5711 9.42891 15.25 11.5 15.25C13.5711 15.25 15.25 13.5711 15.25 11.5C15.25 9.42889 13.5711 7.74998 11.5 7.74998ZM8.9668 1.24998C9.38074 1.24075 9.72397 1.5694 9.7334 1.98338C9.74257 2.39715 9.41475 2.74036 9.00098 2.74998C6.16665 2.81457 4.82953 3.09943 3.94727 3.9785C3.18194 4.74118 2.85752 5.85583 2.74902 8.03709C2.72845 8.45075 2.37654 8.76951 1.96289 8.74901C1.54923 8.72844 1.23048 8.37652 1.25098 7.96288C1.36156 5.73924 1.69263 4.10707 2.8877 2.916C4.24555 1.56285 6.18809 1.3133 8.9668 1.24998ZM15.0332 1.24998C17.8119 1.3133 19.7544 1.56286 21.1123 2.916C22.3074 4.10707 22.6385 5.73921 22.749 7.96288C22.7695 8.37652 22.4508 8.72844 22.0371 8.74901C21.6235 8.76949 21.2715 8.45075 21.251 8.03709C21.1425 5.85584 20.8181 4.74117 20.0527 3.9785C19.1704 3.09944 17.8333 2.81457 14.999 2.74998C14.5853 2.74034 14.2574 2.39714 14.2666 1.98338C14.276 1.56941 14.6193 1.24077 15.0332 1.24998Z" fill="black"/>
</svg>
