<svg width="24" height="24" viewBox="0 0 24 24" fill="none" xmlns="http://www.w3.org/2000/svg">
<path d="M12 4.25C14.5705 4.25 16.7739 5.38137 18.4795 6.71289C20.1865 8.04556 21.4484 9.61958 22.1543 10.6094C22.1718 10.6339 22.19 10.6586 22.208 10.6836C22.4612 11.0357 22.75 11.4378 22.75 12C22.75 12.5622 22.4612 12.9643 22.208 13.3164C22.19 13.3414 22.1718 13.3661 22.1543 13.3906C21.4484 14.3804 20.1865 15.9544 18.4795 17.2871C16.7739 18.6186 14.5705 19.75 12 19.75C9.42952 19.75 7.22613 18.6186 5.52051 17.2871C3.81346 15.9544 2.55159 14.3804 1.8457 13.3906C1.82822 13.3661 1.80995 13.3414 1.79199 13.3164C1.53884 12.9643 1.25 12.5622 1.25 12C1.25 11.4378 1.53884 11.0357 1.79199 10.6836C1.80995 10.6586 1.82822 10.6339 1.8457 10.6094C2.55159 9.61958 3.81347 8.04556 5.52051 6.71289C7.22613 5.38137 9.42952 4.25 12 4.25ZM12 5.75C9.88134 5.75 7.99587 6.68348 6.44336 7.89551C4.89242 9.10633 3.7266 10.5547 3.06641 11.4805C2.90323 11.7093 2.82563 11.8212 2.7793 11.9102C2.74984 11.9667 2.74992 11.9829 2.75 11.998V12.002C2.74992 12.0171 2.74984 12.0333 2.7793 12.0898C2.82563 12.1788 2.90323 12.2907 3.06641 12.5195C3.7266 13.4453 4.89242 14.8937 6.44336 16.1045C7.99587 17.3165 9.88134 18.25 12 18.25C14.1187 18.25 16.0041 17.3165 17.5566 16.1045C19.1076 14.8937 20.2734 13.4453 20.9336 12.5195C21.0968 12.2907 21.1744 12.1788 21.2207 12.0898C21.2502 12.0333 21.2501 12.0171 21.25 12.002V11.998C21.2501 11.9829 21.2502 11.9667 21.2207 11.9102C21.1744 11.8212 21.0968 11.7093 20.9336 11.4805C20.2734 10.5547 19.1076 9.10633 17.5566 7.89551C16.0041 6.68348 14.1187 5.75 12 5.75ZM12 8.25C14.0711 8.25 15.75 9.92893 15.75 12C15.75 14.0711 14.0711 15.75 12 15.75C9.92893 15.75 8.25 14.0711 8.25 12C8.25 9.92893 9.92893 8.25 12 8.25ZM12 9.75C10.7574 9.75 9.75 10.7574 9.75 12C9.75 13.2426 10.7574 14.25 12 14.25C13.2426 14.25 14.25 13.2426 14.25 12C14.25 10.7574 13.2426 9.75 12 9.75Z" fill="black"/>
</svg>
