<svg width="24" height="24" viewBox="0 0 24 24" fill="none" xmlns="http://www.w3.org/2000/svg">
<path d="M14.8496 8.24994C11.2048 8.25015 8.25021 11.2048 8.25 14.8495C8.25 18.4945 11.2047 21.4499 14.8496 21.4501C16.4017 21.4501 17.8291 20.9142 18.9561 20.0175L21.4697 22.5302C21.7626 22.8231 22.2374 22.8231 22.5303 22.5302C22.8232 22.2373 22.8232 21.7626 22.5303 21.4697L20.0176 18.956C20.9143 17.829 21.4502 16.4016 21.4502 14.8495C21.45 11.2046 18.4946 8.24994 14.8496 8.24994ZM1.92676 17.2538C1.51464 17.2943 1.21363 17.661 1.25391 18.0732C1.39081 19.4739 1.71334 20.5824 2.56543 21.4345C3.41753 22.2866 4.52605 22.6091 5.92676 22.746C6.33892 22.7863 6.70568 22.4853 6.74609 22.0732C6.78636 21.6611 6.48529 21.2943 6.07324 21.2538C4.80309 21.1297 4.11489 20.8609 3.62695 20.373C3.13901 19.885 2.87021 19.1969 2.74609 17.9267C2.70562 17.5146 2.33888 17.2136 1.92676 17.2538ZM14.8496 9.74994C17.6661 9.74994 19.95 12.0331 19.9502 14.8495C19.9502 17.6662 17.6663 19.9501 14.8496 19.9501C12.0331 19.9499 9.75 17.6661 9.75 14.8495C9.75021 12.0332 12.0333 9.75015 14.8496 9.74994ZM12.9004 14.0995C12.4863 14.0995 12.1506 14.4355 12.1504 14.8495C12.1504 15.2638 12.4862 15.5995 12.9004 15.5995H16.7998C17.214 15.5995 17.5498 15.2638 17.5498 14.8495C17.5496 14.4355 17.2139 14.0995 16.7998 14.0995H12.9004ZM2 9.24994C1.5858 9.24994 1.25003 9.58575 1.25 9.99994V13.9999C1.25 14.4142 1.58579 14.7499 2 14.7499C2.41418 14.7499 2.75 14.4141 2.75 13.9999V9.99994C2.74997 9.58577 2.41416 9.24998 2 9.24994ZM18.0732 1.25385C17.6611 1.21357 17.2944 1.51465 17.2539 1.9267C17.2136 2.33886 17.5146 2.70561 17.9268 2.74603C19.1969 2.87015 19.8851 3.13895 20.373 3.62689C20.861 4.11483 21.1298 4.80303 21.2539 6.07318C21.2943 6.48528 21.6611 6.78631 22.0732 6.74603C22.4853 6.70555 22.7864 6.33881 22.7461 5.9267C22.6092 4.52604 22.2857 3.41842 21.4336 2.56635C20.5815 1.71427 19.4739 1.39075 18.0732 1.25385ZM5.92676 1.25385C4.52604 1.39074 3.41753 1.71424 2.56543 2.56635C1.71367 3.41836 1.39079 4.52628 1.25391 5.9267C1.21363 6.33886 1.51465 6.70561 1.92676 6.74603C2.33892 6.78631 2.70568 6.48529 2.74609 6.07318C2.87021 4.80303 3.13901 4.11484 3.62695 3.62689C4.11489 3.13899 4.80314 2.87014 6.07324 2.74603C6.48528 2.70555 6.78636 2.33881 6.74609 1.9267C6.70562 1.51464 6.33888 1.21357 5.92676 1.25385ZM10 1.24994C9.5858 1.24994 9.25003 1.58575 9.25 1.99994C9.25 2.41415 9.58579 2.74994 10 2.74994H14C14.4142 2.7499 14.75 2.41413 14.75 1.99994C14.75 1.58577 14.4142 1.24998 14 1.24994H10Z" fill="black"/>
</svg>
