<svg width="24" height="24" viewBox="0 0 24 24" fill="none" xmlns="http://www.w3.org/2000/svg">
<path d="M9.46753 13.4616C9.76061 13.1689 10.2354 13.1695 10.5281 13.4626C10.8205 13.7557 10.8201 14.2305 10.5271 14.5231L4.82788 20.2145C5.16698 20.2391 5.54771 20.2468 5.93042 20.2438C6.44899 20.2398 6.95121 20.2168 7.32495 20.194C7.51099 20.1827 7.66408 20.171 7.77026 20.1628C7.82318 20.1587 7.86467 20.1553 7.89233 20.153L7.92358 20.1501H7.93335C8.34577 20.1132 8.70982 20.4173 8.74683 20.8298C8.78382 21.2422 8.47956 21.6071 8.06714 21.6442H8.06323L8.05347 21.6452L8.01831 21.6481C7.98764 21.6507 7.94289 21.6545 7.88647 21.6589C7.77331 21.6676 7.61132 21.6792 7.41577 21.6911C7.02572 21.7148 6.49575 21.7396 5.94214 21.7438C5.39311 21.748 4.79908 21.732 4.28882 21.6686C4.03458 21.637 3.77967 21.5916 3.55249 21.5221C3.34342 21.4582 3.06849 21.3487 2.85718 21.1374C2.64585 20.9261 2.53637 20.6511 2.47241 20.4421C2.40296 20.2149 2.35751 19.96 2.32593 19.7057C2.26257 19.1955 2.24651 18.6015 2.25073 18.0524C2.25499 17.4988 2.2797 16.9688 2.30347 16.5788C2.31538 16.3832 2.32696 16.2212 2.33569 16.1081C2.34005 16.0516 2.34386 16.0069 2.34644 15.9762L2.34937 15.9411L2.35034 15.9313L2.35132 15.9274C2.3884 15.5149 2.7523 15.2107 3.16479 15.2477C3.57732 15.2847 3.88146 15.6497 3.84448 16.0622V16.071L3.84155 16.1022C3.83923 16.1299 3.83587 16.1714 3.83179 16.2243C3.82359 16.3305 3.81188 16.4836 3.80054 16.6696C3.77776 17.0433 3.75472 17.5456 3.75073 18.0641C3.74786 18.438 3.75478 18.8101 3.77808 19.1432L9.46753 13.4616ZM13.4753 13.4626C13.768 13.1695 14.2428 13.1689 14.5359 13.4616L20.2244 19.1432C20.2477 18.8101 20.2556 18.438 20.2527 18.0641C20.2487 17.5456 20.2247 17.0433 20.2019 16.6696C20.1906 16.4836 20.1798 16.3305 20.1716 16.2243C20.1675 16.1714 20.1642 16.1299 20.1619 16.1022L20.1589 16.071V16.0632L20.158 16.0622C20.121 15.6497 20.4261 15.2847 20.8386 15.2477C21.251 15.2109 21.615 15.515 21.6521 15.9274L21.6531 15.9313V15.9411L21.657 15.9762C21.6596 16.0069 21.6624 16.0517 21.6667 16.1081C21.6755 16.2212 21.688 16.3832 21.7 16.5788C21.7237 16.9688 21.7484 17.4988 21.7527 18.0524C21.7569 18.6014 21.7408 19.1955 21.6775 19.7057C21.6459 19.9601 21.5995 20.2148 21.53 20.4421C21.4661 20.6511 21.3566 20.9261 21.1453 21.1374C20.934 21.3484 20.6599 21.4582 20.4509 21.5221C20.2237 21.5916 19.9689 21.637 19.7146 21.6686C19.2043 21.732 18.6104 21.748 18.0613 21.7438C17.5077 21.7396 16.9777 21.7148 16.5876 21.6911C16.3921 21.6792 16.2301 21.6676 16.1169 21.6589C16.0604 21.6545 16.0158 21.6507 15.9851 21.6481L15.95 21.6452L15.9402 21.6442H15.9363C15.5237 21.6072 15.2196 21.2423 15.2566 20.8298C15.2936 20.4172 15.6576 20.1131 16.0701 20.1501H16.0798L16.1101 20.153C16.1377 20.1553 16.1793 20.1587 16.2322 20.1628C16.3384 20.171 16.4921 20.1827 16.6785 20.194C17.0522 20.2168 17.5544 20.2398 18.073 20.2438C18.4555 20.2467 18.8356 20.2391 19.1746 20.2145L13.4763 14.5231C13.1833 14.2305 13.1828 13.7557 13.4753 13.4626ZM5.94214 2.25066C6.49575 2.25491 7.02572 2.27963 7.41577 2.30339C7.61132 2.3153 7.77331 2.32688 7.88647 2.33562C7.94289 2.33997 7.98764 2.34379 8.01831 2.34636L8.05347 2.34929L8.06323 2.35027H8.06714C8.47957 2.3874 8.78383 2.75224 8.74683 3.16472C8.70981 3.57715 8.34576 3.88123 7.93335 3.84441H7.9314L7.92358 3.84343L7.89233 3.84148C7.86467 3.83916 7.82318 3.8358 7.77026 3.83171C7.66408 3.82352 7.51099 3.8118 7.32495 3.80046C6.95121 3.77769 6.44899 3.75463 5.93042 3.75066C5.54771 3.74772 5.16698 3.75533 4.82788 3.77995L10.5271 9.47136C10.8201 9.76398 10.8205 10.2388 10.5281 10.5319C10.2354 10.825 9.76062 10.8256 9.46753 10.5329L3.77808 4.85124C3.75478 5.18437 3.74786 5.55644 3.75073 5.93034C3.75472 6.4489 3.77776 6.95115 3.80054 7.32487C3.81188 7.51092 3.82359 7.66401 3.83179 7.77019C3.83587 7.82313 3.83923 7.86459 3.84155 7.89226L3.84448 7.92351V7.9323C3.88146 8.34482 3.57732 8.70973 3.16479 8.74675C2.75232 8.78373 2.38842 8.47951 2.35132 8.06706L2.35034 8.06316L2.34937 8.05339L2.34644 8.01823C2.34386 7.98756 2.34005 7.9428 2.33569 7.8864C2.32696 7.77323 2.31538 7.61124 2.30347 7.4157C2.2797 7.02565 2.25499 6.49567 2.25073 5.94206C2.24651 5.39304 2.26257 4.799 2.32593 4.28874C2.3575 4.03451 2.40296 3.77959 2.47241 3.55241C2.53637 3.34333 2.64586 3.06842 2.85718 2.8571C3.0685 2.64579 3.34341 2.53629 3.55249 2.47234C3.77967 2.40288 4.03458 2.35743 4.28882 2.32585C4.79908 2.26249 5.39311 2.24645 5.94214 2.25066ZM18.0613 2.25066C18.6104 2.24644 19.2043 2.26247 19.7146 2.32585C19.9689 2.35744 20.2237 2.40285 20.4509 2.47234C20.6599 2.53626 20.934 2.64603 21.1453 2.8571C21.3566 3.06842 21.4661 3.34333 21.53 3.55241C21.5995 3.77964 21.6459 4.03443 21.6775 4.28874C21.7408 4.79899 21.7569 5.39305 21.7527 5.94206C21.7484 6.49567 21.7237 7.02565 21.7 7.4157C21.688 7.61124 21.6755 7.77323 21.6667 7.8864C21.6624 7.94277 21.6596 7.98758 21.657 8.01823L21.6531 8.05339V8.06316L21.6521 8.06706C21.615 8.47944 21.251 8.7836 20.8386 8.74675C20.4261 8.70973 20.121 8.34482 20.158 7.9323L20.1589 7.93132V7.92351L20.1619 7.89226C20.1642 7.86459 20.1675 7.82312 20.1716 7.77019C20.1798 7.66402 20.1906 7.51089 20.2019 7.32487C20.2247 6.95115 20.2487 6.4489 20.2527 5.93034C20.2556 5.55644 20.2477 5.18437 20.2244 4.85124L14.5359 10.5329C14.2428 10.8256 13.768 10.825 13.4753 10.5319C13.1828 10.2388 13.1833 9.76402 13.4763 9.47136L19.1746 3.77995C18.8356 3.75536 18.4555 3.74773 18.073 3.75066C17.5544 3.75463 17.0522 3.77769 16.6785 3.80046C16.4921 3.81181 16.3384 3.82351 16.2322 3.83171C16.1793 3.8358 16.1377 3.83916 16.1101 3.84148L16.0798 3.84343L16.072 3.84441H16.0701C15.6576 3.88136 15.2936 3.57722 15.2566 3.16472C15.2196 2.75217 15.5237 2.38729 15.9363 2.35027H15.9402L15.95 2.34929L15.9851 2.34636C16.0158 2.34378 16.0604 2.33998 16.1169 2.33562C16.2301 2.32688 16.3921 2.3153 16.5876 2.30339C16.9777 2.27963 17.5077 2.2549 18.0613 2.25066Z" fill="black"/>
</svg>
