<svg width="24" height="24" viewBox="0 0 24 24" fill="none" xmlns="http://www.w3.org/2000/svg">
<path d="M12 1.25C16.7353 1.25 20.75 4.62885 20.75 9V10.2256C20.77 10.2509 20.79 10.2745 20.8076 10.2969C20.8416 10.3399 20.8698 10.376 20.8867 10.3965L20.9053 10.4189C21.3613 10.9728 21.7301 11.421 22.0039 11.8096C22.2864 12.2108 22.5009 12.5933 22.6191 13.0264C22.7936 13.6654 22.7936 14.3346 22.6191 14.9736C22.456 15.5706 22.1275 16.0849 21.7998 16.5137C21.6015 16.7733 21.3613 17.0524 21.1494 17.2979C21.0336 17.4321 20.926 17.5562 20.8389 17.6621C20.8196 17.6855 20.8004 17.709 20.7812 17.7324C20.7684 17.7481 20.7541 17.7626 20.7412 17.7783C20.7024 18.888 20.433 19.8003 19.9297 20.5283C19.3843 21.3172 18.6177 21.8193 17.7637 22.1396C16.1356 22.7502 14.0227 22.7502 12.0947 22.75H12C11.5858 22.75 11.25 22.4142 11.25 22C11.25 21.5858 11.5858 21.25 12 21.25C14.0465 21.25 15.8912 21.2397 17.2363 20.7354C17.8821 20.4933 18.3658 20.1514 18.6953 19.6748C18.8668 19.4268 19.0077 19.1227 19.1055 18.7461C19.016 18.7507 18.9256 18.7504 18.8359 18.7432C18.4785 18.7141 18.1371 18.5584 17.7744 18.3926C17.7467 18.3798 17.7186 18.3664 17.6904 18.3535C17.6701 18.3443 17.6481 18.3346 17.625 18.3242C17.2688 18.1651 16.5977 17.8652 16.3418 17.1084C16.2488 16.833 16.2493 16.5385 16.25 16.2646V11.7354C16.2493 11.4615 16.2488 11.1668 16.3418 10.8916C16.5977 10.1348 17.2688 9.83488 17.625 9.67578C17.6481 9.66544 17.6701 9.65572 17.6904 9.64648C17.7186 9.63368 17.7467 9.62114 17.7744 9.6084C18.1372 9.44239 18.4784 9.28587 18.8359 9.25684C18.974 9.24567 19.1131 9.24878 19.25 9.26562V9C19.25 5.63916 16.1013 2.75 12 2.75C7.89873 2.75 4.75 5.63916 4.75 9V9.2666C4.87942 9.24987 5.01747 9.24498 5.16406 9.25684C5.5216 9.28585 5.86284 9.44239 6.22559 9.6084C6.25341 9.62113 6.28149 9.63369 6.30957 9.64648C6.33127 9.65638 6.35334 9.66596 6.375 9.67578C6.64769 9.79942 6.91485 9.92115 7.12793 10.1064C7.7508 10.6481 7.75034 11.363 7.75 11.7764V16.2236C7.75034 16.637 7.75081 17.3528 7.12793 17.8945C6.9149 18.0797 6.64756 18.2006 6.375 18.3242C6.35328 18.334 6.33133 18.3436 6.30957 18.3535C6.28144 18.3664 6.25344 18.3798 6.22559 18.3926C5.86292 18.5585 5.52152 18.7141 5.16406 18.7432C4.11901 18.8277 3.53337 18.1151 3.18945 17.6963C3.17992 17.6847 3.1703 17.6732 3.16113 17.6621C3.07398 17.5562 2.96642 17.4321 2.85059 17.2979C2.63871 17.0524 2.39855 16.7733 2.2002 16.5137C1.87261 16.0849 1.54397 15.5715 1.38086 14.9746C1.20625 14.3354 1.2063 13.6656 1.38086 13.0264C1.49919 12.5932 1.7135 12.2108 1.99609 11.8096C2.26982 11.421 2.63872 10.9728 3.09473 10.4189L3.11328 10.3965C3.13195 10.3738 3.1514 10.3494 3.17188 10.3242C3.19656 10.2938 3.22255 10.2618 3.25 10.2285V9C3.25 4.62885 7.26471 1.25 12 1.25ZM5.04297 10.752C4.91909 10.7419 4.83979 10.77 4.74121 10.8438C4.60766 10.9437 4.48218 11.0937 4.27148 11.3496C3.79281 11.931 3.46005 12.3358 3.22266 12.6729C2.99048 13.0025 2.88238 13.2233 2.82812 13.4219C2.7243 13.8023 2.72423 14.1987 2.82812 14.5791C2.91679 14.9036 3.11153 15.237 3.3916 15.6035C3.57169 15.8391 3.74652 16.0396 3.93066 16.252C4.05414 16.3943 4.18202 16.5421 4.31934 16.709C4.51427 16.9457 4.63608 17.0821 4.75684 17.168C4.84619 17.2315 4.92183 17.2578 5.04297 17.248C5.10255 17.2432 5.18608 17.2181 5.68848 16.9893C6.0719 16.8146 6.11768 16.7842 6.14355 16.7617C6.18817 16.7229 6.20676 16.6911 6.22168 16.6309C6.24372 16.5416 6.25 16.4224 6.25 16.1953V11.8047C6.25 11.5779 6.24366 11.4593 6.22168 11.3701C6.20673 11.3096 6.18833 11.2772 6.14355 11.2383C6.11767 11.2157 6.07138 11.1861 5.68848 11.0117C5.186 10.7829 5.10255 10.7568 5.04297 10.752ZM18.957 10.752C18.8975 10.7568 18.8139 10.7829 18.3115 11.0117C18.0921 11.1116 17.969 11.1694 17.874 11.2383C17.8015 11.2908 17.7776 11.3274 17.7627 11.3711C17.7615 11.3764 17.7577 11.3963 17.7549 11.4424C17.7501 11.5197 17.75 11.623 17.75 11.8047V16.1953C17.75 16.3771 17.7501 16.4803 17.7549 16.5576C17.7577 16.6037 17.7615 16.6236 17.7627 16.6289C17.7776 16.6726 17.8015 16.7092 17.874 16.7617C17.969 16.8306 18.0921 16.8884 18.3115 16.9883C18.8139 17.2171 18.8975 17.2432 18.957 17.248C19.0645 17.2567 19.1685 17.2328 19.251 17.1865C19.2889 17.1652 19.3402 17.1224 19.6807 16.709C19.8179 16.5422 19.9459 16.3943 20.0693 16.252C20.2534 16.0396 20.4283 15.8381 20.6084 15.6025C20.8882 15.2362 21.0833 14.9034 21.1719 14.5791C21.2759 14.1986 21.2759 13.8014 21.1719 13.4209C21.1176 13.2224 21.0094 13.0023 20.7773 12.6729C20.54 12.3358 20.2072 11.9311 19.7285 11.3496C19.6601 11.2666 19.6153 11.2087 19.5762 11.1582C19.5432 11.1156 19.5132 11.079 19.4775 11.0361C19.4517 11.0109 19.4293 10.9828 19.4072 10.9541C19.332 10.8708 19.2833 10.8316 19.251 10.8135C19.1685 10.7672 19.0645 10.7433 18.957 10.752Z" fill="black"/>
</svg>
